<svg width="40" height="41" viewBox="0 0 40 41" fill="none" xmlns="http://www.w3.org/2000/svg">
<rect y="0.5" width="40" height="40" rx="20" fill="#ECE9FF"/>
<path d="M12.5 14.5H14.5V17.5H24.5V14.5H26.5V20.5H28.5V14.5C28.5 13.4 27.6 12.5 26.5 12.5H22.32C21.9 11.34 20.8 10.5 19.5 10.5C18.2 10.5 17.1 11.34 16.68 12.5H12.5C11.4 12.5 10.5 13.4 10.5 14.5V28.5C10.5 29.6 11.4 30.5 12.5 30.5H17.5V28.5H12.5V14.5ZM19.5 12.5C20.05 12.5 20.5 12.95 20.5 13.5C20.5 14.05 20.05 14.5 19.5 14.5C18.95 14.5 18.5 14.05 18.5 13.5C18.5 12.95 18.95 12.5 19.5 12.5Z" fill="#6960D7"/>
<path d="M25.51 22.5L24.09 23.91L25.67 25.49H19.5V27.49H25.67L24.09 29.08L25.51 30.49L29.5 26.49L25.51 22.5Z" fill="#6960D7"/>
</svg>
