<svg width="37" height="51" viewBox="0 0 37 51" fill="none" xmlns="http://www.w3.org/2000/svg">
<g clip-path="url(#clip0_2_1462)">
<path d="M17 20.0002V14.0002H21V20.0002H26V12.0002H29L19 3.00024L9 12.0002H12V20.0002H17Z" fill="#323232"/>
</g>
<path d="M0.98 46.0002V36.6622H2.898V40.6102H6.44V36.6622H8.358V46.0002H6.44V42.1782H2.898V46.0002H0.98ZM9.86825 42.7662C9.86825 41.7396 10.1949 40.9042 10.8483 40.2602C11.5109 39.6162 12.3649 39.2942 13.4103 39.2942C14.4276 39.2942 15.2676 39.6256 15.9303 40.2882C16.5929 40.9509 16.9243 41.7956 16.9243 42.8222C16.9243 43.7742 16.5789 44.5816 15.8883 45.2442C15.2069 45.8976 14.3716 46.2242 13.3823 46.2242C12.3556 46.2242 11.5109 45.9022 10.8483 45.2582C10.1949 44.6049 9.86825 43.7742 9.86825 42.7662ZM12.1363 41.4082C11.8189 41.7536 11.6603 42.2062 11.6603 42.7662C11.6603 43.3262 11.8189 43.7789 12.1363 44.1242C12.4536 44.4696 12.8736 44.6422 13.3963 44.6422C13.9096 44.6422 14.3249 44.4696 14.6423 44.1242C14.9689 43.7789 15.1323 43.3356 15.1323 42.7942C15.1323 42.2156 14.9736 41.7536 14.6563 41.4082C14.3483 41.0629 13.9329 40.8902 13.4103 40.8902C12.8876 40.8902 12.4629 41.0629 12.1363 41.4082ZM18.2453 46.0002V39.5182H20.0233V40.3302C20.4153 39.6396 21.0079 39.2942 21.8013 39.2942C22.6599 39.2942 23.2479 39.6536 23.5653 40.3722C23.9853 39.6536 24.6386 39.2942 25.5253 39.2942C26.1973 39.2942 26.7199 39.4949 27.0933 39.8962C27.2893 40.1109 27.4246 40.3536 27.4993 40.6242C27.5739 40.8856 27.6113 41.2636 27.6113 41.7582V46.0002H25.8333V42.0942C25.8333 41.2262 25.5019 40.7922 24.8393 40.7922C24.5126 40.7922 24.2559 40.9089 24.0693 41.1422C23.8919 41.3662 23.8033 41.6836 23.8033 42.0942V46.0002H22.0253V42.1502C22.0253 41.2449 21.6986 40.7922 21.0453 40.7922C20.3639 40.7922 20.0233 41.2449 20.0233 42.1502V46.0002H18.2453ZM33.9122 43.8022L35.5502 44.2502C35.2235 44.8849 34.7848 45.3749 34.2342 45.7202C33.6928 46.0562 33.0815 46.2242 32.4002 46.2242C31.3735 46.2242 30.5288 45.8976 29.8662 45.2442C29.2035 44.5909 28.8722 43.7602 28.8722 42.7522C28.8722 41.7349 29.1895 40.9042 29.8242 40.2602C30.4682 39.6162 31.2942 39.2942 32.3022 39.2942C33.3288 39.2942 34.1688 39.6256 34.8222 40.2882C35.4755 40.9416 35.8022 41.7909 35.8022 42.8362C35.8022 42.9856 35.7975 43.1022 35.7882 43.1862H30.7202C30.7948 43.6342 30.9862 43.9889 31.2942 44.2502C31.6022 44.5116 31.9755 44.6422 32.4142 44.6422C32.7408 44.6422 33.0348 44.5676 33.2962 44.4182C33.5668 44.2689 33.7722 44.0636 33.9122 43.8022ZM30.7202 42.1642H33.9682C33.8935 41.7349 33.7068 41.3989 33.4082 41.1562C33.1188 40.9136 32.7548 40.7922 32.3162 40.7922C31.4295 40.7922 30.8975 41.2496 30.7202 42.1642Z" fill="#272543"/>
<defs>
<clipPath id="clip0_2_1462">
<rect width="24" height="24" fill="white" transform="translate(7 0.000244141)"/>
</clipPath>
</defs>
</svg>
