<svg width="49" height="47" viewBox="0 0 49 47" fill="none" xmlns="http://www.w3.org/2000/svg">
<path d="M23 16.0001C23 16.0001 22 16.0001 22 15.0001C22 14.0001 23 11.0001 27 11.0001C31 11.0001 32 14.0001 32 15.0001C32 16.0001 31 16.0001 31 16.0001H23ZM27 10.0001C27.7956 10.0001 28.5587 9.68399 29.1213 9.12138C29.6839 8.55877 30 7.79571 30 7.00006C30 6.20441 29.6839 5.44135 29.1213 4.87874C28.5587 4.31613 27.7956 4.00006 27 4.00006C26.2044 4.00006 25.4413 4.31613 24.8787 4.87874C24.3161 5.44135 24 6.20441 24 7.00006C24 7.79571 24.3161 8.55877 24.8787 9.12138C25.4413 9.68399 26.2044 10.0001 27 10.0001Z" fill="#272543"/>
<path fill-rule="evenodd" clip-rule="evenodd" d="M21.216 16.0005C21.0678 15.6883 20.9938 15.346 21 15.0005C21 13.6455 21.68 12.2505 22.936 11.2805C22.3091 11.0873 21.6559 10.9929 21 11.0005C17 11.0005 16 14.0005 16 15.0005C16 16.0005 17 16.0005 17 16.0005H21.216Z" fill="#272543"/>
<path d="M20.5 10.0001C21.163 10.0001 21.7989 9.73667 22.2678 9.26783C22.7366 8.79899 23 8.1631 23 7.50006C23 6.83702 22.7366 6.20114 22.2678 5.73229C21.7989 5.26345 21.163 5.00006 20.5 5.00006C19.837 5.00006 19.2011 5.26345 18.7322 5.73229C18.2634 6.20114 18 6.83702 18 7.50006C18 8.1631 18.2634 8.79899 18.7322 9.26783C19.2011 9.73667 19.837 10.0001 20.5 10.0001Z" fill="#272543"/>
<path d="M0.98 42V32.662H3.962C5.06333 32.662 5.91267 32.9233 6.51 33.446C7.11667 33.9593 7.42 34.692 7.42 35.644C7.42 36.6147 7.12133 37.3847 6.524 37.954C5.92667 38.514 5.11467 38.794 4.088 38.794H2.898V42H0.98ZM2.898 37.212H3.724C4.27467 37.212 4.704 37.086 5.012 36.834C5.32 36.5727 5.474 36.2087 5.474 35.742C5.474 35.2847 5.32 34.9207 5.012 34.65C4.704 34.3793 4.28867 34.244 3.766 34.244H2.898V37.212ZM13.3989 42V41.104C12.8015 41.8507 12.0502 42.224 11.1449 42.224C10.2395 42.224 9.49288 41.9067 8.90488 41.272C8.31688 40.6373 8.02288 39.8253 8.02288 38.836C8.02288 37.8093 8.33088 36.9647 8.94688 36.302C9.56288 35.63 10.3422 35.294 11.2849 35.294C11.7235 35.294 12.1062 35.378 12.4329 35.546C12.7595 35.7047 13.0815 35.9707 13.3989 36.344V35.518H15.1769V42H13.3989ZM9.91288 38.794C9.91288 39.3633 10.0762 39.8393 10.4029 40.222C10.7295 40.5953 11.1402 40.782 11.6349 40.782C12.1295 40.782 12.5495 40.586 12.8949 40.194C13.2495 39.7927 13.4269 39.312 13.4269 38.752C13.4269 38.1827 13.2589 37.716 12.9229 37.352C12.5962 36.9787 12.1715 36.792 11.6489 36.792C11.1355 36.792 10.7155 36.9787 10.3889 37.352C10.0715 37.7253 9.91288 38.206 9.91288 38.794ZM17.0851 40.768V36.988H16.3431V35.49H17.0851V33.754H18.8631V35.49H19.6751V36.988H18.8631V40.096C18.8631 40.2453 18.9005 40.3527 18.9751 40.418C19.0498 40.4833 19.1805 40.516 19.3671 40.516H19.6751V42H18.2611C17.8411 42 17.5378 41.9067 17.3511 41.72C17.1738 41.524 17.0851 41.2067 17.0851 40.768ZM21.862 34.65C21.5727 34.65 21.3347 34.5567 21.148 34.37C20.9613 34.1833 20.868 33.9453 20.868 33.656C20.868 33.376 20.9613 33.1427 21.148 32.956C21.3347 32.7693 21.5727 32.676 21.862 32.676C22.1513 32.676 22.3847 32.7693 22.562 32.956C22.7487 33.1427 22.842 33.3853 22.842 33.684C22.842 33.9547 22.744 34.1833 22.548 34.37C22.3613 34.5567 22.1327 34.65 21.862 34.65ZM20.966 42V35.518H22.744V42H20.966ZM29.086 39.802L30.724 40.25C30.3973 40.8847 29.9587 41.3747 29.408 41.72C28.8667 42.056 28.2553 42.224 27.574 42.224C26.5473 42.224 25.7027 41.8973 25.04 41.244C24.3773 40.5907 24.046 39.76 24.046 38.752C24.046 37.7347 24.3633 36.904 24.998 36.26C25.642 35.616 26.468 35.294 27.476 35.294C28.5027 35.294 29.3427 35.6253 29.996 36.288C30.6493 36.9413 30.976 37.7907 30.976 38.836C30.976 38.9853 30.9713 39.102 30.962 39.186H25.894C25.9687 39.634 26.16 39.9887 26.468 40.25C26.776 40.5113 27.1493 40.642 27.588 40.642C27.9147 40.642 28.2087 40.5673 28.47 40.418C28.7407 40.2687 28.946 40.0633 29.086 39.802ZM25.894 38.164H29.142C29.0673 37.7347 28.8807 37.3987 28.582 37.156C28.2927 36.9133 27.9287 36.792 27.49 36.792C26.6033 36.792 26.0713 37.2493 25.894 38.164ZM32.1906 42V35.518H33.9686V36.316C34.2019 35.9427 34.4493 35.6813 34.7106 35.532C34.9813 35.3733 35.3219 35.294 35.7326 35.294C36.3766 35.294 36.9086 35.4947 37.3286 35.896C37.5433 36.1107 37.6926 36.3673 37.7766 36.666C37.8606 36.9553 37.9026 37.366 37.9026 37.898V42H36.1246V37.982C36.1246 37.646 36.0733 37.394 35.9706 37.226C35.7839 36.9367 35.4993 36.792 35.1166 36.792C34.7713 36.792 34.4913 36.9087 34.2766 37.142C34.0713 37.3753 33.9686 37.6833 33.9686 38.066V42H32.1906ZM39.7121 40.768V36.988H38.9701V35.49H39.7121V33.754H41.4901V35.49H42.3021V36.988H41.4901V40.096C41.4901 40.2453 41.5274 40.3527 41.6021 40.418C41.6768 40.4833 41.8074 40.516 41.9941 40.516H42.3021V42H40.8881C40.4681 42 40.1648 41.9067 39.9781 41.72C39.8008 41.524 39.7121 41.2067 39.7121 40.768ZM43.0749 40.096H44.7829C44.8669 40.6373 45.1516 40.908 45.6369 40.908C45.8516 40.908 46.0243 40.852 46.1549 40.74C46.2856 40.6187 46.3509 40.4693 46.3509 40.292C46.3509 40.096 46.2669 39.942 46.0989 39.83C45.9403 39.7087 45.6229 39.5733 45.1469 39.424C44.4469 39.2187 43.9336 38.948 43.6069 38.612C43.2803 38.276 43.1169 37.856 43.1169 37.352C43.1169 36.736 43.3456 36.2413 43.8029 35.868C44.2603 35.4853 44.8669 35.294 45.6229 35.294C46.3603 35.294 46.9436 35.4807 47.3729 35.854C47.8023 36.218 48.0263 36.7313 48.0449 37.394H46.3649V37.282C46.3649 37.086 46.2856 36.9273 46.1269 36.806C45.9776 36.6753 45.7816 36.61 45.5389 36.61C45.3243 36.61 45.1516 36.666 45.0209 36.778C44.8903 36.8807 44.8249 37.0207 44.8249 37.198C44.8249 37.3753 44.8856 37.5153 45.0069 37.618C45.1003 37.6927 45.1936 37.7487 45.2869 37.786C45.3803 37.8233 45.6556 37.912 46.1129 38.052C46.8036 38.2573 47.2983 38.5 47.5969 38.78C47.9609 39.1253 48.1429 39.5733 48.1429 40.124C48.1429 40.7587 47.9096 41.2673 47.4429 41.65C46.9856 42.0327 46.3789 42.224 45.6229 42.224C44.8576 42.224 44.2509 42.0373 43.8029 41.664C43.3549 41.2907 43.1123 40.768 43.0749 40.096Z" fill="#272543"/>
</svg>
