<svg width="60" height="42" viewBox="0 0 60 42" fill="none" xmlns="http://www.w3.org/2000/svg">
<path d="M1.13663 10.0002V1.99624H3.27263C4.22463 1.99624 4.95263 2.20824 5.45663 2.63224C5.96063 3.04824 6.21263 3.65224 6.21263 4.44424C6.21263 5.27624 5.92863 5.92424 5.36063 6.38824C4.89663 6.75624 4.23663 6.94024 3.38063 6.94024H2.14463V10.0002H1.13663ZM2.14463 6.07624H3.18863C3.57263 6.07624 3.90463 6.02824 4.18463 5.93224C4.48863 5.82024 4.73263 5.63624 4.91663 5.38024C5.10063 5.11624 5.19263 4.81224 5.19263 4.46824C5.19263 4.12424 5.10063 3.82424 4.91663 3.56824C4.74063 3.30424 4.49263 3.12024 4.17263 3.01624C3.86863 2.91224 3.49663 2.86024 3.05663 2.86024H2.14463V6.07624ZM7.57613 9.32824C7.05613 8.78424 6.79613 8.08424 6.79613 7.22824C6.79613 6.37224 7.05613 5.67624 7.57613 5.14024C8.10413 4.60424 8.78813 4.33624 9.62813 4.33624C10.4441 4.33624 11.1121 4.61224 11.6321 5.16424C12.1601 5.70824 12.4241 6.40424 12.4241 7.25224C12.4241 8.06024 12.1481 8.74424 11.5961 9.30424C11.0521 9.85624 10.3841 10.1322 9.59213 10.1322C8.76813 10.1322 8.09613 9.86424 7.57613 9.32824ZM7.73213 7.24024C7.73213 7.84824 7.90413 8.34424 8.24813 8.72824C8.60013 9.10424 9.05613 9.29224 9.61613 9.29224C10.1601 9.29224 10.6081 9.10024 10.9601 8.71624C11.3121 8.33224 11.4881 7.84024 11.4881 7.24024C11.4881 6.62424 11.3161 6.12824 10.9721 5.75224C10.6281 5.36824 10.1761 5.17624 9.61613 5.17624C9.04813 5.17624 8.59213 5.36824 8.24813 5.75224C7.90413 6.12824 7.73213 6.62424 7.73213 7.24024ZM14.7649 10.0002L12.8689 4.46824H13.8049L15.2209 8.53624L16.4929 4.46824H17.3929L18.6409 8.53624L20.0929 4.46824H21.0289L19.0609 10.0002H18.2329L16.9609 5.80024L15.6289 10.0002H14.7649ZM27.0597 7.52824H22.4517C22.4917 7.93624 22.6117 8.27224 22.8117 8.53624C23.1797 9.04024 23.6757 9.29224 24.2997 9.29224C24.6437 9.29224 24.9637 9.20824 25.2597 9.04024C25.5637 8.86424 25.7957 8.63224 25.9557 8.34424L26.7597 8.64424C26.5357 9.10824 26.1997 9.47224 25.7517 9.73624C25.3117 10.0002 24.8277 10.1322 24.2997 10.1322C23.4757 10.1322 22.7997 9.86024 22.2717 9.31624C21.7437 8.77224 21.4797 8.08424 21.4797 7.25224C21.4797 6.40424 21.7397 5.70824 22.2597 5.16424C22.7877 4.61224 23.4557 4.33624 24.2637 4.33624C25.0637 4.33624 25.7317 4.60824 26.2677 5.15224C26.8037 5.68824 27.0717 6.36024 27.0717 7.16824C27.0717 7.32024 27.0677 7.44024 27.0597 7.52824ZM22.4637 6.85624H26.0997C26.0677 6.48024 25.9637 6.16424 25.7877 5.90824C25.4117 5.40424 24.9037 5.15224 24.2637 5.15224C23.6157 5.15224 23.1197 5.40824 22.7757 5.92024C22.6317 6.14424 22.5277 6.45624 22.4637 6.85624ZM28.3222 10.0002V4.46824H29.2342V5.40424C29.3782 5.06824 29.5462 4.82424 29.7382 4.67224C30.0262 4.44824 30.3782 4.33624 30.7942 4.33624H31.0102V5.26024C30.9462 5.25224 30.8622 5.24824 30.7582 5.24824C30.2462 5.24824 29.8462 5.46024 29.5582 5.88424C29.3422 6.19624 29.2342 6.63224 29.2342 7.19224V10.0002H28.3222ZM37.0793 7.52824H32.4713C32.5113 7.93624 32.6313 8.27224 32.8313 8.53624C33.1993 9.04024 33.6953 9.29224 34.3193 9.29224C34.6633 9.29224 34.9833 9.20824 35.2793 9.04024C35.5833 8.86424 35.8153 8.63224 35.9753 8.34424L36.7793 8.64424C36.5553 9.10824 36.2193 9.47224 35.7713 9.73624C35.3313 10.0002 34.8473 10.1322 34.3193 10.1322C33.4953 10.1322 32.8193 9.86024 32.2913 9.31624C31.7633 8.77224 31.4993 8.08424 31.4993 7.25224C31.4993 6.40424 31.7593 5.70824 32.2793 5.16424C32.8073 4.61224 33.4753 4.33624 34.2833 4.33624C35.0833 4.33624 35.7513 4.60824 36.2873 5.15224C36.8233 5.68824 37.0912 6.36024 37.0912 7.16824C37.0912 7.32024 37.0872 7.44024 37.0793 7.52824ZM32.4833 6.85624H36.1193C36.0873 6.48024 35.9833 6.16424 35.8073 5.90824C35.4313 5.40424 34.9233 5.15224 34.2833 5.15224C33.6353 5.15224 33.1393 5.40824 32.7952 5.92024C32.6513 6.14424 32.5473 6.45624 32.4833 6.85624ZM42.552 10.0002V9.05224C42.272 9.42824 41.976 9.70424 41.664 9.88024C41.352 10.0482 40.988 10.1322 40.572 10.1322C39.812 10.1322 39.188 9.86424 38.7 9.32824C38.212 8.79224 37.968 8.10424 37.968 7.26424C37.968 6.42424 38.212 5.72824 38.7 5.17624C39.196 4.61624 39.82 4.33624 40.572 4.33624C41.356 4.33624 42.016 4.66024 42.552 5.30824V1.99624H43.464V10.0002H42.552ZM38.928 7.27624C38.928 7.88424 39.092 8.38024 39.42 8.76424C39.756 9.14824 40.184 9.34024 40.704 9.34024C41.24 9.34024 41.68 9.14424 42.024 8.75224C42.376 8.35224 42.552 7.85224 42.552 7.25224C42.552 6.62824 42.384 6.12424 42.048 5.74024C41.72 5.34824 41.292 5.15224 40.764 5.15224C40.22 5.15224 39.776 5.35224 39.432 5.75224C39.096 6.14424 38.928 6.65224 38.928 7.27624ZM48.9843 10.0002V1.99624H51.2403C52.0563 1.99624 52.6843 2.18024 53.1243 2.54824C53.5723 2.91624 53.7963 3.44024 53.7963 4.12024C53.7963 4.64824 53.6443 5.08424 53.3403 5.42824C53.1723 5.62824 52.9003 5.80024 52.5243 5.94424C52.9243 6.03224 53.2243 6.15624 53.4243 6.31624C53.8723 6.66824 54.0963 7.18024 54.0963 7.85224C54.0963 8.22024 54.0203 8.56024 53.8683 8.87224C53.7163 9.17624 53.5043 9.41624 53.2323 9.59224C52.8083 9.86424 52.1443 10.0002 51.2403 10.0002H48.9843ZM49.9923 5.59624L51.0123 5.58424C51.6363 5.57624 52.0723 5.47224 52.3203 5.27224C52.6483 5.00824 52.8123 4.64024 52.8123 4.16824C52.8123 3.91224 52.7523 3.68024 52.6323 3.47224C52.5203 3.25624 52.3683 3.10424 52.1763 3.01624C51.9203 2.88824 51.4683 2.82424 50.8203 2.82424H49.9923V5.59624ZM49.9923 9.18424H51.0003C51.7043 9.18424 52.2083 9.09624 52.5123 8.92024C52.8963 8.70424 53.0883 8.32824 53.0883 7.79224C53.0883 7.31224 52.9403 6.96424 52.6443 6.74824C52.3563 6.52424 51.8923 6.41224 51.2523 6.41224H49.9923V9.18424ZM56.6377 9.83224L54.6697 4.46824H55.6417L57.1297 8.57224L58.7857 4.46824H59.7817L56.4817 12.6642H55.4857L56.6377 9.83224Z" fill="#6960D7"/>
<g clip-path="url(#clip0_2_1480)">
<path d="M24.6376 23.5786L21.4798 21.0206C21.4427 21.2015 21.414 21.3875 21.3972 21.5768C21.3634 21.9185 21.3651 22.2636 21.4056 22.5936L24.6376 23.5786ZM34.5241 32.1925C34.1479 32.9028 33.6486 33.4757 33.0599 33.9565C31.8589 34.9415 30.2733 35.563 28.7416 36.1627C24.8703 37.6754 23.2527 38.7911 20.6887 41.989L19.4624 41.4748C20.466 39.8465 21.3921 38.183 22.4109 36.5581C24.285 33.5745 26.5352 30.2225 28.9963 27.6845C29.4754 27.1903 29.9781 26.7129 30.5077 26.2589C32.3464 24.6826 34.5966 23.5652 36.9599 22.927C35.7369 22.3406 34.8007 20.9888 33.8493 20.8196C30.8653 20.2852 30.555 25.8334 29.2814 27.4533C24.3238 33.7554 14.7865 28.569 15.5422 20.8045L19.4894 22.009C19.491 21.8063 19.5012 21.6036 19.5197 21.4009C19.6041 20.5348 19.8503 19.6855 20.2096 19.0154L20.7477 18.0103L21.635 18.7289L28.2963 24.1281C29.0334 22.3038 29.6542 20.312 31.0205 19.3119C31.9162 18.6569 32.9958 18.3118 34.2424 18.5346C34.9171 18.6552 35.4704 18.9165 35.9444 19.2868C38.952 22.1128 39.0701 22.55 43.9417 22.5165L44.5 24.1097C41.6577 24.2185 38.3178 24.4531 35.7656 25.6207C35.494 25.7446 35.2292 25.8753 34.9711 26.0127C35.413 27.9425 35.4586 30.4235 34.5241 32.1925ZM27.8189 26.3427C27.684 26.4482 27.544 26.5454 27.4006 26.6342L25.0542 25.9172L18.3086 23.8617C18.5818 25.7983 20.6415 27.2205 22.5476 27.7549C25.0171 28.4451 26.3531 27.6058 27.2724 26.202L27.8189 26.3427ZM32.8642 27.3579C32.4054 27.703 31.9668 28.0698 31.5468 28.4518C31.0492 28.9057 30.5752 29.3832 30.1248 29.8774C29.6711 30.3749 29.2409 30.8875 28.8293 31.4068C28.0433 32.4019 27.3146 33.4439 26.6128 34.4976L26.623 34.511C26.9671 34.3686 27.3297 34.2262 27.6992 34.0821C28.8378 33.6382 30.0287 33.1708 30.9362 32.5527C31.7543 31.9931 32.2384 31.4336 32.5218 30.7887C32.9638 29.7768 33.0026 28.4501 32.8642 27.3579Z" fill="#6960D7"/>
</g>
<defs>
<clipPath id="clip0_2_1480">
<rect width="29" height="24" fill="white" transform="matrix(-1 0 0 1 44.5 18.0002)"/>
</clipPath>
</defs>
</svg>
