<svg width="32" height="32" viewBox="0 0 32 32" fill="none" xmlns="http://www.w3.org/2000/svg">
<rect y="0.000244141" width="32" height="32" rx="8" fill="#FF5492"/>
<g clip-path="url(#clip0_2_1537)">
<path d="M21.0371 12.0823C21.4953 11.981 21.9558 12.2517 22.0732 12.718L22.0742 12.719C22.1903 13.1903 21.9083 13.6744 21.4375 13.7854H21.4365C20.2765 14.0499 19.0182 14.2334 17.8203 14.3401V23.2502C17.8203 23.7167 17.444 24.0998 16.9805 24.0999C16.5169 24.0999 16.1406 23.7167 16.1406 23.2502V19.5999H14.8594V23.2502C14.8594 23.7167 14.4831 24.0999 14.0195 24.0999C13.556 24.0998 13.1797 23.7167 13.1797 23.2502V14.3401C11.9819 14.2334 10.7237 14.0498 9.55664 13.7854H9.55566C9.09186 13.6743 8.80976 13.1899 8.92578 12.719L8.92676 12.718C9.03682 12.2808 9.44838 12.0156 9.87695 12.0676L9.96289 12.0823C11.7158 12.4778 13.67 12.6506 15.5 12.6506C17.3301 12.6506 19.2842 12.4778 21.0371 12.0823ZM15.5 8.90063C16.3707 8.90063 17.0801 9.62126 17.0801 10.5002C17.0801 11.3792 16.3707 12.0999 15.5 12.0999C14.6293 12.0998 13.9199 11.3792 13.9199 10.5002C13.9199 9.62127 14.6293 8.90064 15.5 8.90063Z" fill="white" stroke="white" stroke-width="0.2"/>
</g>
<defs>
<clipPath id="clip0_2_1537">
<rect width="16" height="16" fill="white" transform="translate(8 8.00024)"/>
</clipPath>
</defs>
</svg>
