<svg width="75" height="114" viewBox="0 0 75 114" fill="none" xmlns="http://www.w3.org/2000/svg">
<g opacity="0.24" filter="url(#filter0_f_2_1465)">
<rect x="20" y="63.0002" width="35" height="35" rx="17.5" fill="#6960D7"/>
</g>
<rect x="12" y="53.0002" width="40" height="40" rx="20" fill="#6960D7"/>
<path d="M40.8016 68.1995H23.2016C22.3176 68.1995 21.6016 68.9155 21.6016 69.7995V76.9995C21.6016 77.8835 22.3176 78.5995 23.2016 78.5995H25.6016V72.1995H38.4016V78.5995H40.8016C41.6856 78.5995 42.4016 77.8835 42.4016 76.9995V69.7995C42.4016 68.9155 41.6856 68.1995 40.8016 68.1995Z" fill="white"/>
<path d="M37.4016 72.1995H26.6016C26.0493 72.1995 25.6016 72.6472 25.6016 73.1995V80.7995C25.6016 81.3517 26.0493 81.7995 26.6016 81.7995H37.4016C37.9538 81.7995 38.4016 81.3517 38.4016 80.7995V73.1995C38.4016 72.6472 37.9538 72.1995 37.4016 72.1995Z" stroke="white" stroke-width="2" stroke-miterlimit="10"/>
<path d="M39.1969 66.5995H24.7969V64.9995C24.7969 64.5579 25.1553 64.1995 25.5969 64.1995H38.3969C38.8385 64.1995 39.1969 64.5579 39.1969 64.9995V66.5995Z" fill="white"/>
<path d="M23.1732 5.85868L31.6666 38.3165C31.761 38.6774 31.7061 39.0612 31.5141 39.3811C30.9098 40.3881 29.4057 40.2353 29.0164 39.1274L17.8923 7.47462C17.5649 6.54316 17.7593 5.50781 18.4023 4.75856C19.8542 3.06663 22.6088 3.70183 23.1732 5.85868Z" fill="#FF54A6"/>
<path d="M54.2309 26.1969L53.872 26.0216C53.3609 25.7721 52.7449 25.9985 52.5171 26.5195L45.728 42.0423C45.577 42.3876 45.708 42.7912 46.033 42.982C46.4037 43.1997 46.8812 43.0589 47.0743 42.6748L54.6855 27.5449C54.9358 27.0473 54.7314 26.4412 54.2309 26.1969Z" fill="#39A6A3"/>
<rect x="7" y="42.2542" width="7.43" height="7.43" rx="1" transform="rotate(-45 7 42.2542)" fill="#FFAE63"/>
<defs>
<filter id="filter0_f_2_1465" x="0" y="43.0002" width="75" height="75" filterUnits="userSpaceOnUse" color-interpolation-filters="sRGB">
<feFlood flood-opacity="0" result="BackgroundImageFix"/>
<feBlend mode="normal" in="SourceGraphic" in2="BackgroundImageFix" result="shape"/>
<feGaussianBlur stdDeviation="10" result="effect1_foregroundBlur_2_1465"/>
</filter>
</defs>
</svg>
